<?xml version="1.0" encoding="utf-8" ?><svg xmlns="http://www.w3.org/2000/svg" xmlns:xlink="http://www.w3.org/1999/xlink" width="1024" height="1024" viewBox="0 0 1024 1024"><path fill="#1A222B" d="M512.337 337.422C512.623 337.068 512.936 336.664 513.372 336.195C562.032 283.979 625.396 253.359 696.542 249.677C839.825 242.179 965.07 357.254 970.79 500.567C976.609 646.36 863.245 768.045 717.751 773.853C635.907 776.25 568.147 742.395 511.218 685.363C464.659 735.306 404.396 767.99 335.881 773.303C192.81 784.395 64.1069 676.676 53.608 532.648C43.793 398 137.28 274.686 271.496 253.399C283.373 251.515 294.345 250.562 306.318 249.711C307.369 249.653 308.445 249.601 309.499 249.594C369.238 249.21 425.97 266.737 473.651 303.066C487.815 313.857 499.632 325.209 512.337 337.422ZM538.11 646.412L538.846 647.458C547.55 658.531 554.246 664.461 564.72 673.542C596.357 700.97 637.536 720.978 679.044 727.505C735.019 736.149 789.366 721.593 834.926 688.831C934.397 617.302 955.767 480.534 883.109 381.432C808.665 279.894 660.615 264.132 566.883 348.633C558.255 356.412 551.021 365.146 542.95 373.455C530.806 385.314 517.06 397.985 503.364 408.045C495.544 393.284 490.351 384.208 479.658 371.084C444.332 327.818 389.889 299.726 334.355 294.775C216.622 284.277 109.339 372.504 97.9383 490.502C86.2738 611.235 176.942 717.623 296.901 728.927C361.32 735.655 422.733 709.444 468.62 664.979C486.278 647.868 500.189 629.144 519.434 612.927C524.266 623.88 531.145 636.719 538.11 646.412Z"/><path fill="#EC8829" d="M547.135 375.617C548.919 375.593 549.657 375.599 551.125 374.442C558.02 369.008 564.005 362.567 570.463 356.621C577.315 350.312 584.641 344.238 592.287 338.912C666.131 287.486 771.496 291.468 840.752 349.217C929.343 421.598 943.589 553.634 871.69 642.604C836.678 685.726 785.572 715.066 729.99 720.345C673.683 725.693 617.562 705.749 574.006 670.414C562.36 660.966 551.667 649.715 542.773 637.624C537.331 630.225 532.985 621.85 529.015 613.575C540.387 602.833 553.713 592.876 564.846 582.351C594.252 554.551 615.706 536.963 659.15 545.426C649.684 551.274 641.162 557.954 632.432 564.834C613.76 579.548 595.156 595.386 577.494 611.285C592.115 632.861 622.5 654.372 647.204 664.01C698.428 683.995 754.577 679.785 800.388 648.621C875.766 597.342 895.746 494.458 844.04 419.332C791.65 342.912 692.06 325.294 614.962 375.279C600.87 384.416 594.244 393.375 583.845 405.992C578.84 412.066 568.703 417.682 562.92 423.323C557.364 427.968 547.079 439.115 541.735 442.433C548.623 423.9 552.439 409.112 549.814 389.068C549.293 385.098 548.508 379.242 547.135 375.617Z"/><path fill="#EC8829" d="M476.127 648.24C452.842 666.717 433.051 686.309 405.963 699.738C301.816 751.367 177.089 704.8 126.179 601.385C76.9127 501.308 118.935 377.788 217.884 326.845C269.439 300.303 328.643 295.957 383.602 314.6C430.138 330.589 474.986 367.181 496.692 411.603C491.076 416.517 483.235 422.41 477.121 426.941C460.402 439.332 444.616 455.458 428.028 467.596C408.69 481.747 384.23 479.816 361.49 478.353C363.811 473.57 365.893 469.802 368.824 465.392C376.211 463.476 379.046 463.436 386.469 459.878C397.254 454.708 404.178 447.154 413.219 440.082C423.923 431.71 436.554 420.546 447.56 413.019L446.077 411.086C354.428 293.299 170.207 345.634 152.12 493.003C137.12 615.215 258.847 710.269 373.746 666.061C417.531 649.214 445.926 611.001 481.272 582.745C472.533 606.002 469.537 623.5 476.127 648.24Z"/><path fill="#1A222B" d="M641.047 370.912C647.551 372.6 678.279 402.3 683.829 408.385C729.769 458.94 735.215 540.069 697.833 596.965C683.843 618.257 662.736 635.985 643.89 653.103C637.596 650.954 629.887 646.34 624.228 642.804C617.882 638.988 609.445 632.258 603.955 627.254C609.095 621.707 621.419 610.326 627.267 605.188C655.902 580.027 674.936 553.964 676.259 514.217C677.414 479.557 662.109 446.852 635.887 424.319C625.572 415.456 612.598 405.733 603.341 395.977C613.761 385.404 628.099 377.827 641.047 370.912Z"/><path fill="#1A222B" d="M382.534 370.319C395.975 375.046 411.862 388.022 422.843 397.212C416.012 402.097 404.746 412.144 398.261 417.812C390.473 424.618 375.491 437.111 369.768 444.991C353.263 467.716 343.21 496.788 347.043 524.852C353.896 575.032 384.465 597.855 420.653 625.973C414.797 631.183 409.834 635.244 403.642 639.979C397.487 644.363 389.599 649.184 382.736 652.368C370.935 644.242 363.683 638.936 353.11 629.092C321.715 599.863 303.407 560.637 301.457 517.755C299.594 476.773 315.956 433.258 344.596 403.84C355.485 392.656 371.662 382.008 381.96 370.941L382.534 370.319Z"/><path fill="#1A222B" d="M504.202 408.871C508.68 405.163 543.868 376.681 547.135 375.617C548.508 379.242 549.293 385.098 549.814 389.068C552.439 409.112 548.623 423.9 541.735 442.433C540.195 444.058 534.906 448.309 532.934 449.965L515.847 464.322C499.187 478.34 482.932 492.775 465.542 505.864C429.919 532.675 400.339 538.48 357.295 532.305C354.195 512.703 355.016 505.595 358.812 486.44C383.925 491.877 415.538 488.748 436.209 471.949C455.147 456.609 473.376 440.362 492.188 424.845C498.884 419.323 502.985 417.541 504.202 408.871Z"/><path fill="#1A222B" d="M481.272 582.745C494.322 570.29 509.215 558.499 523.098 546.777C549.178 524.756 572.752 502.116 607.246 494.08C628.151 489.21 642.727 488.232 663.886 492.356C668.248 513.289 666.191 517.498 662.596 537.179C617.874 529.802 595.308 542.668 563.436 571.74C552.526 581.692 540.165 591.085 529.61 601.587C515.991 614.371 492.011 639.251 476.127 648.24C469.537 623.5 472.533 606.002 481.272 582.745Z"/><path fill="#CED1D1" d="M538.11 646.412L538.846 647.458C535.805 652.453 523.912 669.941 520.234 673.534C521.478 669.869 535.152 650.679 538.11 646.412Z"/></svg>